<svg xmlns="http://www.w3.org/2000/svg" width="400" height="400" viewBox="0 0 400 400">
  <!-- Edit-mode placeholder: full-bleed 10px grid; coord (x,y) == pixel (x,y). -->
  <line x1="0" y1="0" x2="0" y2="400" stroke="#7a7a7a" stroke-width="0.5"/>
  <line x1="0" y1="0" x2="400" y2="0" stroke="#7a7a7a" stroke-width="0.5"/>
  <line x1="10" y1="0" x2="10" y2="400" stroke="#7a7a7a" stroke-width="0.5"/>
  <line x1="0" y1="10" x2="400" y2="10" stroke="#7a7a7a" stroke-width="0.5"/>
  <line x1="20" y1="0" x2="20" y2="400" stroke="#7a7a7a" stroke-width="0.5"/>
  <line x1="0" y1="20" x2="400" y2="20" stroke="#7a7a7a" stroke-width="0.5"/>
  <line x1="30" y1="0" x2="30" y2="400" stroke="#7a7a7a" stroke-width="0.5"/>
  <line x1="0" y1="30" x2="400" y2="30" stroke="#7a7a7a" stroke-width="0.5"/>
  <line x1="40" y1="0" x2="40" y2="400" stroke="#7a7a7a" stroke-width="0.5"/>
  <line x1="0" y1="40" x2="400" y2="40" stroke="#7a7a7a" stroke-width="0.5"/>
  <line x1="50" y1="0" x2="50" y2="400" stroke="#7a7a7a" stroke-width="0.5"/>
  <line x1="0" y1="50" x2="400" y2="50" stroke="#7a7a7a" stroke-width="0.5"/>
  <line x1="60" y1="0" x2="60" y2="400" stroke="#7a7a7a" stroke-width="0.5"/>
  <line x1="0" y1="60" x2="400" y2="60" stroke="#7a7a7a" stroke-width="0.5"/>
  <line x1="70" y1="0" x2="70" y2="400" stroke="#7a7a7a" stroke-width="0.5"/>
  <line x1="0" y1="70" x2="400" y2="70" stroke="#7a7a7a" stroke-width="0.5"/>
  <line x1="80" y1="0" x2="80" y2="400" stroke="#7a7a7a" stroke-width="0.5"/>
  <line x1="0" y1="80" x2="400" y2="80" stroke="#7a7a7a" stroke-width="0.5"/>
  <line x1="90" y1="0" x2="90" y2="400" stroke="#7a7a7a" stroke-width="0.5"/>
  <line x1="0" y1="90" x2="400" y2="90" stroke="#7a7a7a" stroke-width="0.5"/>
  <line x1="100" y1="0" x2="100" y2="400" stroke="#7a7a7a" stroke-width="0.5"/>
  <line x1="0" y1="100" x2="400" y2="100" stroke="#7a7a7a" stroke-width="0.5"/>
  <line x1="110" y1="0" x2="110" y2="400" stroke="#7a7a7a" stroke-width="0.5"/>
  <line x1="0" y1="110" x2="400" y2="110" stroke="#7a7a7a" stroke-width="0.5"/>
  <line x1="120" y1="0" x2="120" y2="400" stroke="#7a7a7a" stroke-width="0.5"/>
  <line x1="0" y1="120" x2="400" y2="120" stroke="#7a7a7a" stroke-width="0.5"/>
  <line x1="130" y1="0" x2="130" y2="400" stroke="#7a7a7a" stroke-width="0.5"/>
  <line x1="0" y1="130" x2="400" y2="130" stroke="#7a7a7a" stroke-width="0.5"/>
  <line x1="140" y1="0" x2="140" y2="400" stroke="#7a7a7a" stroke-width="0.5"/>
  <line x1="0" y1="140" x2="400" y2="140" stroke="#7a7a7a" stroke-width="0.5"/>
  <line x1="150" y1="0" x2="150" y2="400" stroke="#7a7a7a" stroke-width="0.5"/>
  <line x1="0" y1="150" x2="400" y2="150" stroke="#7a7a7a" stroke-width="0.5"/>
  <line x1="160" y1="0" x2="160" y2="400" stroke="#7a7a7a" stroke-width="0.5"/>
  <line x1="0" y1="160" x2="400" y2="160" stroke="#7a7a7a" stroke-width="0.5"/>
  <line x1="170" y1="0" x2="170" y2="400" stroke="#7a7a7a" stroke-width="0.5"/>
  <line x1="0" y1="170" x2="400" y2="170" stroke="#7a7a7a" stroke-width="0.5"/>
  <line x1="180" y1="0" x2="180" y2="400" stroke="#7a7a7a" stroke-width="0.5"/>
  <line x1="0" y1="180" x2="400" y2="180" stroke="#7a7a7a" stroke-width="0.5"/>
  <line x1="190" y1="0" x2="190" y2="400" stroke="#7a7a7a" stroke-width="0.5"/>
  <line x1="0" y1="190" x2="400" y2="190" stroke="#7a7a7a" stroke-width="0.5"/>
  <line x1="200" y1="0" x2="200" y2="400" stroke="#7a7a7a" stroke-width="0.5"/>
  <line x1="0" y1="200" x2="400" y2="200" stroke="#7a7a7a" stroke-width="0.5"/>
  <line x1="210" y1="0" x2="210" y2="400" stroke="#7a7a7a" stroke-width="0.5"/>
  <line x1="0" y1="210" x2="400" y2="210" stroke="#7a7a7a" stroke-width="0.5"/>
  <line x1="220" y1="0" x2="220" y2="400" stroke="#7a7a7a" stroke-width="0.5"/>
  <line x1="0" y1="220" x2="400" y2="220" stroke="#7a7a7a" stroke-width="0.5"/>
  <line x1="230" y1="0" x2="230" y2="400" stroke="#7a7a7a" stroke-width="0.5"/>
  <line x1="0" y1="230" x2="400" y2="230" stroke="#7a7a7a" stroke-width="0.5"/>
  <line x1="240" y1="0" x2="240" y2="400" stroke="#7a7a7a" stroke-width="0.5"/>
  <line x1="0" y1="240" x2="400" y2="240" stroke="#7a7a7a" stroke-width="0.5"/>
  <line x1="250" y1="0" x2="250" y2="400" stroke="#7a7a7a" stroke-width="0.5"/>
  <line x1="0" y1="250" x2="400" y2="250" stroke="#7a7a7a" stroke-width="0.5"/>
  <line x1="260" y1="0" x2="260" y2="400" stroke="#7a7a7a" stroke-width="0.5"/>
  <line x1="0" y1="260" x2="400" y2="260" stroke="#7a7a7a" stroke-width="0.5"/>
  <line x1="270" y1="0" x2="270" y2="400" stroke="#7a7a7a" stroke-width="0.5"/>
  <line x1="0" y1="270" x2="400" y2="270" stroke="#7a7a7a" stroke-width="0.5"/>
  <line x1="280" y1="0" x2="280" y2="400" stroke="#7a7a7a" stroke-width="0.5"/>
  <line x1="0" y1="280" x2="400" y2="280" stroke="#7a7a7a" stroke-width="0.5"/>
  <line x1="290" y1="0" x2="290" y2="400" stroke="#7a7a7a" stroke-width="0.5"/>
  <line x1="0" y1="290" x2="400" y2="290" stroke="#7a7a7a" stroke-width="0.5"/>
  <line x1="300" y1="0" x2="300" y2="400" stroke="#7a7a7a" stroke-width="0.5"/>
  <line x1="0" y1="300" x2="400" y2="300" stroke="#7a7a7a" stroke-width="0.5"/>
  <line x1="310" y1="0" x2="310" y2="400" stroke="#7a7a7a" stroke-width="0.5"/>
  <line x1="0" y1="310" x2="400" y2="310" stroke="#7a7a7a" stroke-width="0.5"/>
  <line x1="320" y1="0" x2="320" y2="400" stroke="#7a7a7a" stroke-width="0.5"/>
  <line x1="0" y1="320" x2="400" y2="320" stroke="#7a7a7a" stroke-width="0.5"/>
  <line x1="330" y1="0" x2="330" y2="400" stroke="#7a7a7a" stroke-width="0.5"/>
  <line x1="0" y1="330" x2="400" y2="330" stroke="#7a7a7a" stroke-width="0.5"/>
  <line x1="340" y1="0" x2="340" y2="400" stroke="#7a7a7a" stroke-width="0.5"/>
  <line x1="0" y1="340" x2="400" y2="340" stroke="#7a7a7a" stroke-width="0.5"/>
  <line x1="350" y1="0" x2="350" y2="400" stroke="#7a7a7a" stroke-width="0.5"/>
  <line x1="0" y1="350" x2="400" y2="350" stroke="#7a7a7a" stroke-width="0.5"/>
  <line x1="360" y1="0" x2="360" y2="400" stroke="#7a7a7a" stroke-width="0.5"/>
  <line x1="0" y1="360" x2="400" y2="360" stroke="#7a7a7a" stroke-width="0.5"/>
  <line x1="370" y1="0" x2="370" y2="400" stroke="#7a7a7a" stroke-width="0.5"/>
  <line x1="0" y1="370" x2="400" y2="370" stroke="#7a7a7a" stroke-width="0.5"/>
  <line x1="380" y1="0" x2="380" y2="400" stroke="#7a7a7a" stroke-width="0.5"/>
  <line x1="0" y1="380" x2="400" y2="380" stroke="#7a7a7a" stroke-width="0.5"/>
  <line x1="390" y1="0" x2="390" y2="400" stroke="#7a7a7a" stroke-width="0.5"/>
  <line x1="0" y1="390" x2="400" y2="390" stroke="#7a7a7a" stroke-width="0.5"/>
  <line x1="400" y1="0" x2="400" y2="400" stroke="#7a7a7a" stroke-width="0.5"/>
  <line x1="0" y1="400" x2="400" y2="400" stroke="#7a7a7a" stroke-width="0.5"/>
  <rect x="0" y="0" width="400" height="400" fill="none" stroke="#ffffff" stroke-width="1"/>
  <text x="1" y="8" text-anchor="start" font-family="Inter, sans-serif" font-size="5" fill="#ffffff">0</text>
  <text x="1" y="396" text-anchor="start" font-family="Inter, sans-serif" font-size="5" fill="#ffffff">0</text>
  <text x="10" y="8" text-anchor="middle" font-family="Inter, sans-serif" font-size="5" fill="#ffffff">10</text>
  <text x="10" y="396" text-anchor="middle" font-family="Inter, sans-serif" font-size="5" fill="#ffffff">10</text>
  <text x="3" y="12" text-anchor="start" font-family="Inter, sans-serif" font-size="5" fill="#ffffff">10</text>
  <text x="397" y="12" text-anchor="end" font-family="Inter, sans-serif" font-size="5" fill="#ffffff">10</text>
  <text x="20" y="8" text-anchor="middle" font-family="Inter, sans-serif" font-size="5" fill="#ffffff">20</text>
  <text x="20" y="396" text-anchor="middle" font-family="Inter, sans-serif" font-size="5" fill="#ffffff">20</text>
  <text x="3" y="22" text-anchor="start" font-family="Inter, sans-serif" font-size="5" fill="#ffffff">20</text>
  <text x="397" y="22" text-anchor="end" font-family="Inter, sans-serif" font-size="5" fill="#ffffff">20</text>
  <text x="30" y="8" text-anchor="middle" font-family="Inter, sans-serif" font-size="5" fill="#ffffff">30</text>
  <text x="30" y="396" text-anchor="middle" font-family="Inter, sans-serif" font-size="5" fill="#ffffff">30</text>
  <text x="3" y="32" text-anchor="start" font-family="Inter, sans-serif" font-size="5" fill="#ffffff">30</text>
  <text x="397" y="32" text-anchor="end" font-family="Inter, sans-serif" font-size="5" fill="#ffffff">30</text>
  <text x="40" y="8" text-anchor="middle" font-family="Inter, sans-serif" font-size="5" fill="#ffffff">40</text>
  <text x="40" y="396" text-anchor="middle" font-family="Inter, sans-serif" font-size="5" fill="#ffffff">40</text>
  <text x="3" y="42" text-anchor="start" font-family="Inter, sans-serif" font-size="5" fill="#ffffff">40</text>
  <text x="397" y="42" text-anchor="end" font-family="Inter, sans-serif" font-size="5" fill="#ffffff">40</text>
  <text x="50" y="8" text-anchor="middle" font-family="Inter, sans-serif" font-size="5" fill="#ffffff">50</text>
  <text x="50" y="396" text-anchor="middle" font-family="Inter, sans-serif" font-size="5" fill="#ffffff">50</text>
  <text x="3" y="52" text-anchor="start" font-family="Inter, sans-serif" font-size="5" fill="#ffffff">50</text>
  <text x="397" y="52" text-anchor="end" font-family="Inter, sans-serif" font-size="5" fill="#ffffff">50</text>
  <text x="60" y="8" text-anchor="middle" font-family="Inter, sans-serif" font-size="5" fill="#ffffff">60</text>
  <text x="60" y="396" text-anchor="middle" font-family="Inter, sans-serif" font-size="5" fill="#ffffff">60</text>
  <text x="3" y="62" text-anchor="start" font-family="Inter, sans-serif" font-size="5" fill="#ffffff">60</text>
  <text x="397" y="62" text-anchor="end" font-family="Inter, sans-serif" font-size="5" fill="#ffffff">60</text>
  <text x="70" y="8" text-anchor="middle" font-family="Inter, sans-serif" font-size="5" fill="#ffffff">70</text>
  <text x="70" y="396" text-anchor="middle" font-family="Inter, sans-serif" font-size="5" fill="#ffffff">70</text>
  <text x="3" y="72" text-anchor="start" font-family="Inter, sans-serif" font-size="5" fill="#ffffff">70</text>
  <text x="397" y="72" text-anchor="end" font-family="Inter, sans-serif" font-size="5" fill="#ffffff">70</text>
  <text x="80" y="8" text-anchor="middle" font-family="Inter, sans-serif" font-size="5" fill="#ffffff">80</text>
  <text x="80" y="396" text-anchor="middle" font-family="Inter, sans-serif" font-size="5" fill="#ffffff">80</text>
  <text x="3" y="82" text-anchor="start" font-family="Inter, sans-serif" font-size="5" fill="#ffffff">80</text>
  <text x="397" y="82" text-anchor="end" font-family="Inter, sans-serif" font-size="5" fill="#ffffff">80</text>
  <text x="90" y="8" text-anchor="middle" font-family="Inter, sans-serif" font-size="5" fill="#ffffff">90</text>
  <text x="90" y="396" text-anchor="middle" font-family="Inter, sans-serif" font-size="5" fill="#ffffff">90</text>
  <text x="3" y="92" text-anchor="start" font-family="Inter, sans-serif" font-size="5" fill="#ffffff">90</text>
  <text x="397" y="92" text-anchor="end" font-family="Inter, sans-serif" font-size="5" fill="#ffffff">90</text>
  <text x="100" y="8" text-anchor="middle" font-family="Inter, sans-serif" font-size="5" fill="#ffffff">100</text>
  <text x="100" y="396" text-anchor="middle" font-family="Inter, sans-serif" font-size="5" fill="#ffffff">100</text>
  <text x="3" y="102" text-anchor="start" font-family="Inter, sans-serif" font-size="5" fill="#ffffff">100</text>
  <text x="397" y="102" text-anchor="end" font-family="Inter, sans-serif" font-size="5" fill="#ffffff">100</text>
  <text x="110" y="8" text-anchor="middle" font-family="Inter, sans-serif" font-size="5" fill="#ffffff">110</text>
  <text x="110" y="396" text-anchor="middle" font-family="Inter, sans-serif" font-size="5" fill="#ffffff">110</text>
  <text x="3" y="112" text-anchor="start" font-family="Inter, sans-serif" font-size="5" fill="#ffffff">110</text>
  <text x="397" y="112" text-anchor="end" font-family="Inter, sans-serif" font-size="5" fill="#ffffff">110</text>
  <text x="120" y="8" text-anchor="middle" font-family="Inter, sans-serif" font-size="5" fill="#ffffff">120</text>
  <text x="120" y="396" text-anchor="middle" font-family="Inter, sans-serif" font-size="5" fill="#ffffff">120</text>
  <text x="3" y="122" text-anchor="start" font-family="Inter, sans-serif" font-size="5" fill="#ffffff">120</text>
  <text x="397" y="122" text-anchor="end" font-family="Inter, sans-serif" font-size="5" fill="#ffffff">120</text>
  <text x="130" y="8" text-anchor="middle" font-family="Inter, sans-serif" font-size="5" fill="#ffffff">130</text>
  <text x="130" y="396" text-anchor="middle" font-family="Inter, sans-serif" font-size="5" fill="#ffffff">130</text>
  <text x="3" y="132" text-anchor="start" font-family="Inter, sans-serif" font-size="5" fill="#ffffff">130</text>
  <text x="397" y="132" text-anchor="end" font-family="Inter, sans-serif" font-size="5" fill="#ffffff">130</text>
  <text x="140" y="8" text-anchor="middle" font-family="Inter, sans-serif" font-size="5" fill="#ffffff">140</text>
  <text x="140" y="396" text-anchor="middle" font-family="Inter, sans-serif" font-size="5" fill="#ffffff">140</text>
  <text x="3" y="142" text-anchor="start" font-family="Inter, sans-serif" font-size="5" fill="#ffffff">140</text>
  <text x="397" y="142" text-anchor="end" font-family="Inter, sans-serif" font-size="5" fill="#ffffff">140</text>
  <text x="150" y="8" text-anchor="middle" font-family="Inter, sans-serif" font-size="5" fill="#ffffff">150</text>
  <text x="150" y="396" text-anchor="middle" font-family="Inter, sans-serif" font-size="5" fill="#ffffff">150</text>
  <text x="3" y="152" text-anchor="start" font-family="Inter, sans-serif" font-size="5" fill="#ffffff">150</text>
  <text x="397" y="152" text-anchor="end" font-family="Inter, sans-serif" font-size="5" fill="#ffffff">150</text>
  <text x="160" y="8" text-anchor="middle" font-family="Inter, sans-serif" font-size="5" fill="#ffffff">160</text>
  <text x="160" y="396" text-anchor="middle" font-family="Inter, sans-serif" font-size="5" fill="#ffffff">160</text>
  <text x="3" y="162" text-anchor="start" font-family="Inter, sans-serif" font-size="5" fill="#ffffff">160</text>
  <text x="397" y="162" text-anchor="end" font-family="Inter, sans-serif" font-size="5" fill="#ffffff">160</text>
  <text x="170" y="8" text-anchor="middle" font-family="Inter, sans-serif" font-size="5" fill="#ffffff">170</text>
  <text x="170" y="396" text-anchor="middle" font-family="Inter, sans-serif" font-size="5" fill="#ffffff">170</text>
  <text x="3" y="172" text-anchor="start" font-family="Inter, sans-serif" font-size="5" fill="#ffffff">170</text>
  <text x="397" y="172" text-anchor="end" font-family="Inter, sans-serif" font-size="5" fill="#ffffff">170</text>
  <text x="180" y="8" text-anchor="middle" font-family="Inter, sans-serif" font-size="5" fill="#ffffff">180</text>
  <text x="180" y="396" text-anchor="middle" font-family="Inter, sans-serif" font-size="5" fill="#ffffff">180</text>
  <text x="3" y="182" text-anchor="start" font-family="Inter, sans-serif" font-size="5" fill="#ffffff">180</text>
  <text x="397" y="182" text-anchor="end" font-family="Inter, sans-serif" font-size="5" fill="#ffffff">180</text>
  <text x="190" y="8" text-anchor="middle" font-family="Inter, sans-serif" font-size="5" fill="#ffffff">190</text>
  <text x="190" y="396" text-anchor="middle" font-family="Inter, sans-serif" font-size="5" fill="#ffffff">190</text>
  <text x="3" y="192" text-anchor="start" font-family="Inter, sans-serif" font-size="5" fill="#ffffff">190</text>
  <text x="397" y="192" text-anchor="end" font-family="Inter, sans-serif" font-size="5" fill="#ffffff">190</text>
  <text x="200" y="8" text-anchor="middle" font-family="Inter, sans-serif" font-size="5" fill="#ffffff">200</text>
  <text x="200" y="396" text-anchor="middle" font-family="Inter, sans-serif" font-size="5" fill="#ffffff">200</text>
  <text x="3" y="202" text-anchor="start" font-family="Inter, sans-serif" font-size="5" fill="#ffffff">200</text>
  <text x="397" y="202" text-anchor="end" font-family="Inter, sans-serif" font-size="5" fill="#ffffff">200</text>
  <text x="210" y="8" text-anchor="middle" font-family="Inter, sans-serif" font-size="5" fill="#ffffff">210</text>
  <text x="210" y="396" text-anchor="middle" font-family="Inter, sans-serif" font-size="5" fill="#ffffff">210</text>
  <text x="3" y="212" text-anchor="start" font-family="Inter, sans-serif" font-size="5" fill="#ffffff">210</text>
  <text x="397" y="212" text-anchor="end" font-family="Inter, sans-serif" font-size="5" fill="#ffffff">210</text>
  <text x="220" y="8" text-anchor="middle" font-family="Inter, sans-serif" font-size="5" fill="#ffffff">220</text>
  <text x="220" y="396" text-anchor="middle" font-family="Inter, sans-serif" font-size="5" fill="#ffffff">220</text>
  <text x="3" y="222" text-anchor="start" font-family="Inter, sans-serif" font-size="5" fill="#ffffff">220</text>
  <text x="397" y="222" text-anchor="end" font-family="Inter, sans-serif" font-size="5" fill="#ffffff">220</text>
  <text x="230" y="8" text-anchor="middle" font-family="Inter, sans-serif" font-size="5" fill="#ffffff">230</text>
  <text x="230" y="396" text-anchor="middle" font-family="Inter, sans-serif" font-size="5" fill="#ffffff">230</text>
  <text x="3" y="232" text-anchor="start" font-family="Inter, sans-serif" font-size="5" fill="#ffffff">230</text>
  <text x="397" y="232" text-anchor="end" font-family="Inter, sans-serif" font-size="5" fill="#ffffff">230</text>
  <text x="240" y="8" text-anchor="middle" font-family="Inter, sans-serif" font-size="5" fill="#ffffff">240</text>
  <text x="240" y="396" text-anchor="middle" font-family="Inter, sans-serif" font-size="5" fill="#ffffff">240</text>
  <text x="3" y="242" text-anchor="start" font-family="Inter, sans-serif" font-size="5" fill="#ffffff">240</text>
  <text x="397" y="242" text-anchor="end" font-family="Inter, sans-serif" font-size="5" fill="#ffffff">240</text>
  <text x="250" y="8" text-anchor="middle" font-family="Inter, sans-serif" font-size="5" fill="#ffffff">250</text>
  <text x="250" y="396" text-anchor="middle" font-family="Inter, sans-serif" font-size="5" fill="#ffffff">250</text>
  <text x="3" y="252" text-anchor="start" font-family="Inter, sans-serif" font-size="5" fill="#ffffff">250</text>
  <text x="397" y="252" text-anchor="end" font-family="Inter, sans-serif" font-size="5" fill="#ffffff">250</text>
  <text x="260" y="8" text-anchor="middle" font-family="Inter, sans-serif" font-size="5" fill="#ffffff">260</text>
  <text x="260" y="396" text-anchor="middle" font-family="Inter, sans-serif" font-size="5" fill="#ffffff">260</text>
  <text x="3" y="262" text-anchor="start" font-family="Inter, sans-serif" font-size="5" fill="#ffffff">260</text>
  <text x="397" y="262" text-anchor="end" font-family="Inter, sans-serif" font-size="5" fill="#ffffff">260</text>
  <text x="270" y="8" text-anchor="middle" font-family="Inter, sans-serif" font-size="5" fill="#ffffff">270</text>
  <text x="270" y="396" text-anchor="middle" font-family="Inter, sans-serif" font-size="5" fill="#ffffff">270</text>
  <text x="3" y="272" text-anchor="start" font-family="Inter, sans-serif" font-size="5" fill="#ffffff">270</text>
  <text x="397" y="272" text-anchor="end" font-family="Inter, sans-serif" font-size="5" fill="#ffffff">270</text>
  <text x="280" y="8" text-anchor="middle" font-family="Inter, sans-serif" font-size="5" fill="#ffffff">280</text>
  <text x="280" y="396" text-anchor="middle" font-family="Inter, sans-serif" font-size="5" fill="#ffffff">280</text>
  <text x="3" y="282" text-anchor="start" font-family="Inter, sans-serif" font-size="5" fill="#ffffff">280</text>
  <text x="397" y="282" text-anchor="end" font-family="Inter, sans-serif" font-size="5" fill="#ffffff">280</text>
  <text x="290" y="8" text-anchor="middle" font-family="Inter, sans-serif" font-size="5" fill="#ffffff">290</text>
  <text x="290" y="396" text-anchor="middle" font-family="Inter, sans-serif" font-size="5" fill="#ffffff">290</text>
  <text x="3" y="292" text-anchor="start" font-family="Inter, sans-serif" font-size="5" fill="#ffffff">290</text>
  <text x="397" y="292" text-anchor="end" font-family="Inter, sans-serif" font-size="5" fill="#ffffff">290</text>
  <text x="300" y="8" text-anchor="middle" font-family="Inter, sans-serif" font-size="5" fill="#ffffff">300</text>
  <text x="300" y="396" text-anchor="middle" font-family="Inter, sans-serif" font-size="5" fill="#ffffff">300</text>
  <text x="3" y="302" text-anchor="start" font-family="Inter, sans-serif" font-size="5" fill="#ffffff">300</text>
  <text x="397" y="302" text-anchor="end" font-family="Inter, sans-serif" font-size="5" fill="#ffffff">300</text>
  <text x="310" y="8" text-anchor="middle" font-family="Inter, sans-serif" font-size="5" fill="#ffffff">310</text>
  <text x="310" y="396" text-anchor="middle" font-family="Inter, sans-serif" font-size="5" fill="#ffffff">310</text>
  <text x="3" y="312" text-anchor="start" font-family="Inter, sans-serif" font-size="5" fill="#ffffff">310</text>
  <text x="397" y="312" text-anchor="end" font-family="Inter, sans-serif" font-size="5" fill="#ffffff">310</text>
  <text x="320" y="8" text-anchor="middle" font-family="Inter, sans-serif" font-size="5" fill="#ffffff">320</text>
  <text x="320" y="396" text-anchor="middle" font-family="Inter, sans-serif" font-size="5" fill="#ffffff">320</text>
  <text x="3" y="322" text-anchor="start" font-family="Inter, sans-serif" font-size="5" fill="#ffffff">320</text>
  <text x="397" y="322" text-anchor="end" font-family="Inter, sans-serif" font-size="5" fill="#ffffff">320</text>
  <text x="330" y="8" text-anchor="middle" font-family="Inter, sans-serif" font-size="5" fill="#ffffff">330</text>
  <text x="330" y="396" text-anchor="middle" font-family="Inter, sans-serif" font-size="5" fill="#ffffff">330</text>
  <text x="3" y="332" text-anchor="start" font-family="Inter, sans-serif" font-size="5" fill="#ffffff">330</text>
  <text x="397" y="332" text-anchor="end" font-family="Inter, sans-serif" font-size="5" fill="#ffffff">330</text>
  <text x="340" y="8" text-anchor="middle" font-family="Inter, sans-serif" font-size="5" fill="#ffffff">340</text>
  <text x="340" y="396" text-anchor="middle" font-family="Inter, sans-serif" font-size="5" fill="#ffffff">340</text>
  <text x="3" y="342" text-anchor="start" font-family="Inter, sans-serif" font-size="5" fill="#ffffff">340</text>
  <text x="397" y="342" text-anchor="end" font-family="Inter, sans-serif" font-size="5" fill="#ffffff">340</text>
  <text x="350" y="8" text-anchor="middle" font-family="Inter, sans-serif" font-size="5" fill="#ffffff">350</text>
  <text x="350" y="396" text-anchor="middle" font-family="Inter, sans-serif" font-size="5" fill="#ffffff">350</text>
  <text x="3" y="352" text-anchor="start" font-family="Inter, sans-serif" font-size="5" fill="#ffffff">350</text>
  <text x="397" y="352" text-anchor="end" font-family="Inter, sans-serif" font-size="5" fill="#ffffff">350</text>
  <text x="360" y="8" text-anchor="middle" font-family="Inter, sans-serif" font-size="5" fill="#ffffff">360</text>
  <text x="360" y="396" text-anchor="middle" font-family="Inter, sans-serif" font-size="5" fill="#ffffff">360</text>
  <text x="3" y="362" text-anchor="start" font-family="Inter, sans-serif" font-size="5" fill="#ffffff">360</text>
  <text x="397" y="362" text-anchor="end" font-family="Inter, sans-serif" font-size="5" fill="#ffffff">360</text>
  <text x="370" y="8" text-anchor="middle" font-family="Inter, sans-serif" font-size="5" fill="#ffffff">370</text>
  <text x="370" y="396" text-anchor="middle" font-family="Inter, sans-serif" font-size="5" fill="#ffffff">370</text>
  <text x="3" y="372" text-anchor="start" font-family="Inter, sans-serif" font-size="5" fill="#ffffff">370</text>
  <text x="397" y="372" text-anchor="end" font-family="Inter, sans-serif" font-size="5" fill="#ffffff">370</text>
  <text x="380" y="8" text-anchor="middle" font-family="Inter, sans-serif" font-size="5" fill="#ffffff">380</text>
  <text x="380" y="396" text-anchor="middle" font-family="Inter, sans-serif" font-size="5" fill="#ffffff">380</text>
  <text x="3" y="382" text-anchor="start" font-family="Inter, sans-serif" font-size="5" fill="#ffffff">380</text>
  <text x="397" y="382" text-anchor="end" font-family="Inter, sans-serif" font-size="5" fill="#ffffff">380</text>
  <text x="390" y="8" text-anchor="middle" font-family="Inter, sans-serif" font-size="5" fill="#ffffff">390</text>
  <text x="390" y="396" text-anchor="middle" font-family="Inter, sans-serif" font-size="5" fill="#ffffff">390</text>
  <text x="3" y="392" text-anchor="start" font-family="Inter, sans-serif" font-size="5" fill="#ffffff">390</text>
  <text x="397" y="392" text-anchor="end" font-family="Inter, sans-serif" font-size="5" fill="#ffffff">390</text>
  <text x="399" y="8" text-anchor="end" font-family="Inter, sans-serif" font-size="5" fill="#ffffff">400</text>
  <text x="399" y="396" text-anchor="end" font-family="Inter, sans-serif" font-size="5" fill="#ffffff">400</text>
</svg>
